# xmcd
#
# Track frame offsets:
#	150
#	12095
#	22337
#	31365
#	41480
#	51812
#	61010
#	71875
#	82770
#	92845
#	102570
#	111815
#	124162
#	134397
#	147257
#	154865
#	165727
#	175667
#	192947
#	205375
#	217882
#	229535
#	242805
#	252910
#	272105
#	282492
#	296422
#	308872
#
# Disc length: 4241 seconds
#
# Revision: 0
# Processed by: cddbd v1.4PL0 Copyright (c) Steve Scherf et al.
# Submitted via: dBpowerAMP V4.0
#
DISCID=98108f1c
DTITLE=Stompin` Tom Conners - Two Great Albums
DYEAR=1900
DGENRE=Country
TTITLE0=The World Goes Around
TTITLE1=The Maritime Waltz
TTITLE2=The Northern Gentleman
TTITLE3=Movin` On To Rouyn
TTITLE4=May, The Millwrights Daughter
TTITLE5=Algoma Central No. 69
TTITLE6=Emily The Maple Leaf
TTITLE7=Goin` Back Up North
TTITLE8=Streets Of Toronto
TTITLE9=My Home Cradled Out In The Waves
TTITLE10=The Peterborough Postman
TTITLE11=Carolyne
TTITLE12=Sudbury Saturday Night
TTITLE13=Little Wawa
TTITLE14=My Swisha Miss`
TTITLE15=The Flying C.P.R.
TTITLE16=Tragedy Trail
TTITLE17=How The Mountain Came Down
TTITLE18=Shanty Town Sharon
TTITLE19=Fire In The Mine
TTITLE20=Somewhere There`s Sorrow
TTITLE21=Don Valley Jail
TTITLE22=Benny The Bum
TTITLE23=Black Donnelly`s Massacre
TTITLE24=Battle Of Despair
TTITLE25=Reesor Crossing Tradgedy
TTITLE26=The Little Boy`s Prayer
TTITLE27=Around The Bay And Back Again
EXTD=
EXTT0=
EXTT1=
EXTT2=
EXTT3=
EXTT4=
EXTT5=
EXTT6=
EXTT7=
EXTT8=
EXTT9=
EXTT10=
EXTT11=
EXTT12=
EXTT13=
EXTT14=
EXTT15=
EXTT16=
EXTT17=
EXTT18=
EXTT19=
EXTT20=
EXTT21=
EXTT22=
EXTT23=
EXTT24=
EXTT25=
EXTT26=
EXTT27=
PLAYORDER=
